<svg width="348" height="314" viewBox="0 0 348 314" fill="none" xmlns="http://www.w3.org/2000/svg">
<g clip-path="url(#clip0_117_10)">
<path d="M216.218 182.466H88.7499C84.4273 182.461 80.2831 180.74 77.2266 177.681C74.17 174.622 72.4507 170.474 72.4458 166.148V16.3181C72.4507 11.9918 74.17 7.84404 77.2266 4.78486C80.2831 1.72568 84.4273 0.00488702 88.7499 0H207.339L232.523 20.0905V166.148C232.518 170.474 230.798 174.622 227.742 177.681C224.685 180.74 220.541 182.461 216.218 182.466Z" fill="#E6E6E6"/>
<path d="M88.7498 4.69775C85.6716 4.70123 82.7205 5.92664 80.5438 8.10515C78.3672 10.2837 77.1428 13.2374 77.1393 16.3182V166.148C77.1428 169.229 78.3672 172.183 80.5438 174.361C82.7205 176.54 85.6716 177.765 88.7498 177.769H216.218C219.297 177.765 222.248 176.54 224.424 174.361C226.601 172.183 227.825 169.229 227.829 166.148V22.3537L205.697 4.69775H88.7498Z" fill="white"/>
<path d="M191.426 48.2641H133.391C133.035 48.2641 132.682 48.1939 132.352 48.0573C132.023 47.9207 131.723 47.7206 131.471 47.4682C131.219 47.2159 131.019 46.9163 130.883 46.5867C130.746 46.257 130.676 45.9036 130.676 45.5467C130.676 45.1899 130.746 44.8365 130.883 44.5068C131.019 44.1772 131.219 43.8776 131.471 43.6253C131.723 43.3729 132.023 43.1728 132.352 43.0362C132.682 42.8996 133.035 42.8293 133.391 42.8293H191.426C191.782 42.8293 192.135 42.8996 192.465 43.0362C192.794 43.1728 193.094 43.3729 193.346 43.6253C193.598 43.8776 193.798 44.1772 193.934 44.5068C194.071 44.8365 194.141 45.1899 194.141 45.5467C194.141 45.9036 194.071 46.257 193.934 46.5867C193.798 46.9163 193.598 47.2159 193.346 47.4682C193.094 47.7206 192.794 47.9207 192.465 48.0573C192.135 48.1939 191.782 48.2641 191.426 48.2641Z" fill="#CCCCCC"/>
<path d="M202.625 57.4354H133.391C132.671 57.4354 131.98 57.1491 131.471 56.6395C130.962 56.1299 130.676 55.4387 130.676 54.718C130.676 53.9973 130.962 53.3061 131.471 52.7965C131.98 52.2869 132.671 52.0006 133.391 52.0006H202.625C203.346 52.0006 204.036 52.2869 204.545 52.7965C205.054 53.3061 205.341 53.9973 205.341 54.718C205.341 55.4387 205.054 56.1299 204.545 56.6395C204.036 57.1491 203.346 57.4354 202.625 57.4354Z" fill="#CCCCCC"/>
<path d="M191.426 89.3649H133.391C132.671 89.3649 131.98 89.0786 131.471 88.5689C130.962 88.0593 130.676 87.3681 130.676 86.6474C130.676 85.9267 130.962 85.2356 131.471 84.726C131.98 84.2163 132.671 83.9301 133.391 83.9301H191.426C192.146 83.9301 192.836 84.2163 193.346 84.726C193.855 85.2356 194.141 85.9267 194.141 86.6474C194.141 87.3681 193.855 88.0593 193.346 88.5689C192.836 89.0786 192.146 89.3649 191.426 89.3649Z" fill="#CCCCCC"/>
<path d="M202.625 98.5361H133.391C132.671 98.5361 131.98 98.2498 131.471 97.7402C130.962 97.2306 130.676 96.5394 130.676 95.8187C130.676 95.098 130.962 94.4068 131.471 93.8972C131.98 93.3876 132.671 93.1013 133.391 93.1013H202.625C203.346 93.1013 204.036 93.3876 204.545 93.8972C205.054 94.4068 205.341 95.098 205.341 95.8187C205.341 96.5394 205.054 97.2306 204.545 97.7402C204.036 98.2498 203.346 98.5361 202.625 98.5361Z" fill="#CCCCCC"/>
<path d="M191.426 130.466H133.391C132.671 130.466 131.98 130.179 131.471 129.67C130.962 129.16 130.676 128.469 130.676 127.748C130.676 127.027 130.962 126.336 131.471 125.827C131.98 125.317 132.671 125.031 133.391 125.031H191.426C192.146 125.031 192.836 125.317 193.346 125.827C193.855 126.336 194.141 127.027 194.141 127.748C194.141 128.469 193.855 129.16 193.346 129.67C192.836 130.179 192.146 130.466 191.426 130.466Z" fill="#CCCCCC"/>
<path d="M202.625 139.637H133.391C132.671 139.637 131.98 139.351 131.471 138.841C130.962 138.331 130.676 137.64 130.676 136.919C130.676 136.199 130.962 135.508 131.471 134.998C131.98 134.488 132.671 134.202 133.391 134.202H202.625C203.346 134.202 204.036 134.488 204.545 134.998C205.054 135.508 205.341 136.199 205.341 136.919C205.341 137.64 205.054 138.331 204.545 138.841C204.036 139.351 203.346 139.637 202.625 139.637Z" fill="#CCCCCC"/>
<path d="M109.224 59.7369C114.524 59.7369 118.82 55.4368 118.82 50.1323C118.82 44.8279 114.524 40.5278 109.224 40.5278C103.924 40.5278 99.6278 44.8279 99.6278 50.1323C99.6278 55.4368 103.924 59.7369 109.224 59.7369Z" fill="#F21137"/>
<path d="M108.273 53.7962C108.057 53.7965 107.847 53.7266 107.674 53.597L107.664 53.589L105.408 51.8623C105.198 51.7003 105.06 51.4613 105.025 51.1977C104.991 50.9341 105.062 50.6675 105.223 50.4565C105.385 50.2454 105.624 50.1073 105.887 50.0724C106.151 50.0374 106.417 50.1086 106.628 50.2702L108.089 51.3913L111.541 46.8841C111.621 46.7796 111.72 46.6919 111.834 46.626C111.948 46.5601 112.074 46.5173 112.204 46.5001C112.335 46.4828 112.467 46.4915 112.595 46.5255C112.722 46.5595 112.841 46.6183 112.945 46.6984C113.156 46.8604 113.294 47.0997 113.329 47.3633C113.364 47.6269 113.293 47.8935 113.131 48.1047L109.071 53.4038C108.977 53.5259 108.856 53.6247 108.718 53.6925C108.58 53.7604 108.428 53.7954 108.274 53.795L108.273 53.7962Z" fill="white"/>
<path d="M110.212 100.838C115.512 100.838 119.808 96.5375 119.808 91.2331C119.808 85.9286 115.512 81.6285 110.212 81.6285C104.912 81.6285 100.616 85.9286 100.616 91.2331C100.616 96.5375 104.912 100.838 110.212 100.838Z" fill="#CCCCCC"/>
<path d="M109.224 141.938C114.524 141.938 118.82 137.638 118.82 132.334C118.82 127.029 114.524 122.729 109.224 122.729C103.924 122.729 99.6278 127.029 99.6278 132.334C99.6278 137.638 103.924 141.938 109.224 141.938Z" fill="#CCCCCC"/>
<path d="M232.032 20.7371H212.305C210.865 20.7371 209.483 20.1645 208.465 19.1453C207.447 18.126 206.875 16.7437 206.875 15.3023V0.71932C206.875 0.655475 206.893 0.592916 206.927 0.538829C206.96 0.484742 207.009 0.441311 207.066 0.413517C207.124 0.385722 207.188 0.374689 207.251 0.381683C207.315 0.388678 207.375 0.413416 207.425 0.453062L232.243 20.1311C232.298 20.1749 232.338 20.2348 232.358 20.3026C232.378 20.3703 232.376 20.4424 232.353 20.5091C232.33 20.5757 232.286 20.6334 232.229 20.6743C232.171 20.7151 232.103 20.7371 232.032 20.7371Z" fill="#E6E6E6"/>
<path d="M98.4906 210.539L23.0738 226.45C20.8943 226.907 18.6227 226.48 16.7572 225.263C14.8917 224.046 13.5847 222.138 13.123 219.958L0.181563 158.508C-0.275266 156.327 0.151074 154.053 1.36705 152.186C2.58303 150.319 4.48933 149.011 6.66774 148.549L82.0846 132.639C84.264 132.181 86.5357 132.608 88.4012 133.825C90.2667 135.042 91.5737 136.95 92.0354 139.13L104.977 200.58C105.434 202.761 105.007 205.035 103.791 206.902C102.575 208.769 100.669 210.077 98.4906 210.539Z" fill="white"/>
<path d="M98.4906 210.539L23.0738 226.45C20.8943 226.907 18.6227 226.48 16.7572 225.263C14.8917 224.046 13.5847 222.138 13.123 219.958L0.181563 158.508C-0.275266 156.327 0.151074 154.053 1.36705 152.186C2.58303 150.319 4.48933 149.011 6.66774 148.549L82.0846 132.639C84.264 132.181 86.5357 132.608 88.4012 133.825C90.2667 135.042 91.5737 136.95 92.0354 139.13L104.977 200.58C105.434 202.761 105.007 205.035 103.791 206.902C102.575 208.769 100.669 210.077 98.4906 210.539ZM6.87155 149.516C4.94942 149.924 3.2674 151.078 2.19448 152.726C1.12156 154.373 0.745369 156.379 1.14844 158.304L14.0899 219.754C14.4973 221.678 15.6505 223.361 17.2965 224.435C18.9426 225.509 20.9469 225.885 22.87 225.482L98.2868 209.572C100.209 209.164 101.891 208.01 102.964 206.362C104.037 204.715 104.413 202.709 104.01 200.784L91.0685 139.334C90.6611 137.41 89.5079 135.727 87.8619 134.653C86.2158 133.579 84.2114 133.203 82.2884 133.606L6.87155 149.516Z" fill="#3F3D56"/>
<path d="M77.3987 152.9L39.3368 160.93C39.0037 161.007 38.6537 160.955 38.3576 160.784C38.0614 160.613 37.8411 160.336 37.7413 160.009C37.6957 159.838 37.6853 159.66 37.7107 159.485C37.7362 159.31 37.7969 159.142 37.8893 158.992C37.9817 158.841 38.1038 158.711 38.2481 158.609C38.3925 158.507 38.556 158.436 38.7287 158.4L77.4734 150.226C78.9862 151.079 78.5085 152.666 77.3987 152.9Z" fill="#CCCCCC"/>
<path d="M78.806 159.582L40.7441 167.612C40.411 167.689 40.061 167.637 39.7648 167.466C39.4687 167.295 39.2484 167.018 39.1486 166.691C39.103 166.52 39.0926 166.342 39.118 166.167C39.1435 165.992 39.2042 165.824 39.2966 165.674C39.389 165.523 39.5111 165.393 39.6554 165.291C39.7997 165.189 39.9633 165.118 40.136 165.082L78.8807 156.908C80.3935 157.761 79.9158 159.348 78.806 159.582Z" fill="#CCCCCC"/>
<path d="M33.3172 173.152L21.7011 175.603C21.3218 175.682 20.9263 175.608 20.6016 175.396C20.2769 175.185 20.0494 174.852 19.9691 174.473L17.0797 160.753C17.0001 160.373 17.0743 159.978 17.286 159.653C17.4976 159.328 17.8295 159.1 18.2087 159.02L29.8248 156.569C30.2041 156.49 30.5995 156.564 30.9242 156.776C31.2489 156.988 31.4764 157.32 31.5568 157.699L34.4462 171.419C34.5258 171.798 34.4516 172.194 34.2399 172.519C34.0283 172.844 33.6964 173.072 33.3172 173.152Z" fill="#CCCCCC"/>
<path d="M81.5766 173.287L23.4872 185.542C23.1541 185.619 22.8041 185.567 22.508 185.396C22.2118 185.225 21.9915 184.948 21.8917 184.621C21.8461 184.45 21.8357 184.272 21.8611 184.097C21.8866 183.922 21.9473 183.754 22.0397 183.604C22.1321 183.453 22.2542 183.323 22.3985 183.221C22.5429 183.119 22.7064 183.048 22.8791 183.011L81.6518 170.613C83.1646 171.466 82.6865 173.053 81.5766 173.287Z" fill="#CCCCCC"/>
<path d="M82.9843 179.971L24.8949 192.226C24.5618 192.303 24.2118 192.251 23.9156 192.08C23.6194 191.909 23.3992 191.632 23.2994 191.305C23.2537 191.134 23.2433 190.956 23.2688 190.781C23.2942 190.606 23.355 190.438 23.4474 190.288C23.5398 190.137 23.6619 190.007 23.8062 189.905C23.9505 189.803 24.114 189.732 24.2868 189.696L83.0595 177.297C84.5723 178.15 84.0941 179.737 82.9843 179.971Z" fill="#CCCCCC"/>
<path d="M84.391 186.651L26.3016 198.905C25.9685 198.983 25.6185 198.931 25.3223 198.76C25.0262 198.589 24.8059 198.312 24.7061 197.984C24.6605 197.813 24.6501 197.635 24.6755 197.46C24.7009 197.286 24.7617 197.118 24.8541 196.967C24.9465 196.817 25.0686 196.686 25.2129 196.585C25.3572 196.483 25.5208 196.412 25.6935 196.375L84.4662 183.976C85.979 184.829 85.5009 186.417 84.391 186.651Z" fill="#CCCCCC"/>
<path d="M85.7986 193.334L27.7092 205.589C27.3761 205.666 27.0261 205.614 26.7299 205.443C26.4338 205.272 26.2135 204.995 26.1137 204.668C26.0681 204.497 26.0576 204.319 26.0831 204.144C26.1085 203.969 26.1693 203.801 26.2617 203.651C26.3541 203.5 26.4762 203.37 26.6205 203.268C26.7648 203.166 26.9284 203.095 27.1011 203.059L85.8738 190.66C87.3866 191.513 86.9085 193.1 85.7986 193.334Z" fill="#CCCCCC"/>
<path d="M87.2054 200.014L29.116 212.269C28.7829 212.346 28.4329 212.294 28.1367 212.123C27.8405 211.952 27.6203 211.675 27.5205 211.348C27.4749 211.177 27.4644 210.999 27.4899 210.824C27.5153 210.649 27.5761 210.481 27.6685 210.331C27.7609 210.18 27.883 210.05 28.0273 209.948C28.1716 209.846 28.3352 209.775 28.5079 209.739L87.2806 197.34C88.7934 198.193 88.3152 199.78 87.2054 200.014Z" fill="#CCCCCC"/>
<path d="M97.4595 169.422C97.3275 169.662 97.2146 169.911 97.1219 170.169L73.3409 176.075L69.2039 171.792L61.9288 177.195L68.5163 185.491C69.0485 186.161 69.7835 186.64 70.611 186.857C71.4385 187.073 72.3139 187.015 73.1057 186.692L98.9103 176.138C99.7584 176.763 100.777 177.115 101.829 177.146C102.882 177.178 103.919 176.888 104.803 176.315C105.687 175.742 106.376 174.913 106.778 173.939C107.18 172.965 107.276 171.891 107.054 170.861C106.831 169.831 106.301 168.893 105.532 168.172C104.764 167.45 103.795 166.981 102.753 166.824C101.712 166.668 100.647 166.833 99.7018 167.297C98.7561 167.761 97.974 168.502 97.4595 169.422Z" fill="#A0616A"/>
<path d="M16.2864 221.982C17.0278 221.753 17.71 221.364 18.2849 220.842C18.8598 220.321 19.3134 219.68 19.6139 218.964C19.9143 218.247 20.0543 217.474 20.0238 216.698C19.9934 215.922 19.7933 215.162 19.4377 214.472L35.8032 168.946L24.4379 166.93L11.9249 212.315C10.806 212.989 9.97317 214.052 9.58436 215.3C9.19555 216.548 9.27774 217.896 9.81535 219.087C10.353 220.279 11.3086 221.232 12.5013 221.765C13.694 222.299 15.0408 222.376 16.2864 221.982Z" fill="#A0616A"/>
<path d="M33.7247 177.027L22.5033 172.717C22.184 172.594 21.8949 172.404 21.6556 172.16C21.4164 171.915 21.2326 171.622 21.1168 171.3C21.001 170.978 20.9559 170.634 20.9846 170.293C21.0133 169.952 21.1151 169.621 21.2831 169.323L27.1698 158.877C27.8062 157.246 29.0628 155.933 30.6642 155.228C32.2656 154.523 34.0811 154.482 35.7127 155.114C37.3443 155.746 38.6589 157 39.3682 158.601C40.0775 160.202 40.1238 162.019 39.4967 163.653L36.9002 175.322C36.8257 175.656 36.6802 175.97 36.4735 176.243C36.2669 176.516 36.0039 176.741 35.7026 176.902C35.4012 177.064 35.0686 177.159 34.7273 177.181C34.3859 177.202 34.044 177.15 33.7247 177.027Z" fill="#F21137"/>
<path d="M59.053 307.456L65.1102 307.455L67.9916 284.072L59.052 284.073L59.053 307.456Z" fill="#A0616A"/>
<path d="M57.5078 305.477L69.4364 305.476H69.4369C70.4352 305.476 71.4237 305.673 72.346 306.055C73.2683 306.438 74.1064 306.998 74.8123 307.705C75.5182 308.411 76.0781 309.25 76.4601 310.173C76.8422 311.096 77.0388 312.085 77.0388 313.085V313.332L57.5082 313.332L57.5078 305.477Z" fill="#2F2E41"/>
<path d="M24.9626 307.456L31.0198 307.455L33.9012 284.072L24.9616 284.073L24.9626 307.456Z" fill="#A0616A"/>
<path d="M23.4174 305.477L35.346 305.476H35.3465C36.3448 305.476 37.3333 305.673 38.2556 306.055C39.1779 306.438 40.016 306.998 40.7219 307.705C41.4278 308.411 41.9877 309.25 42.3698 310.173C42.7518 311.096 42.9484 312.085 42.9484 313.085V313.332L23.4178 313.332L23.4174 305.477Z" fill="#2F2E41"/>
<path d="M31.3124 298.044H23.6472C23.3464 298.044 23.0486 297.983 22.7721 297.865C22.4955 297.746 22.2459 297.573 22.0383 297.355C21.8306 297.137 21.6694 296.879 21.5642 296.597C21.4591 296.315 21.4122 296.014 21.4265 295.713L25.0674 217.42L25.2968 217.414L62.3117 216.448L69.5549 294.786C69.5827 295.08 69.552 295.376 69.4644 295.658C69.3768 295.939 69.2341 296.201 69.0447 296.427C68.8552 296.653 68.6228 296.839 68.3608 296.974C68.0989 297.109 67.8127 297.191 67.5189 297.215L58.9092 297.904C58.3684 297.947 57.8304 297.791 57.3966 297.464C56.9628 297.138 56.6632 296.664 56.554 296.133L45.5411 240.366C45.5111 240.197 45.4213 240.044 45.2882 239.935C45.155 239.826 44.9872 239.769 44.8154 239.773H44.8123C44.6399 239.769 44.4718 239.828 44.3388 239.937C44.2058 240.047 44.1167 240.202 44.0879 240.372L33.4939 296.249C33.3935 296.754 33.1214 297.209 32.7237 297.537C32.326 297.864 31.8273 298.043 31.3124 298.044Z" fill="#2F2E41"/>
<path d="M45.3536 147.592C52.0554 147.592 57.4883 142.155 57.4883 135.447C57.4883 128.74 52.0554 123.302 45.3536 123.302C38.6518 123.302 33.2189 128.74 33.2189 135.447C33.2189 142.155 38.6518 147.592 45.3536 147.592Z" fill="#A0616A"/>
<path d="M41.2847 226.595C35.501 226.595 29.5604 225.074 24.6357 220.575C24.3736 220.337 24.1713 220.041 24.0451 219.71C23.919 219.379 23.8726 219.023 23.9097 218.671C24.4368 213.931 26.9937 189.456 25.5537 173.107C25.2727 170.054 25.7047 166.976 26.8155 164.118C27.9264 161.26 29.6857 158.7 31.9546 156.639C34.1838 154.582 36.86 153.073 39.772 152.229C42.684 151.385 45.752 151.23 48.7341 151.776C48.8853 151.803 49.0364 151.831 49.1877 151.86C58.9027 153.742 65.6528 162.741 64.889 172.793C63.7745 187.459 62.7754 207.298 64.3442 218.517C64.4092 218.976 64.3291 219.444 64.1151 219.855C63.9012 220.266 63.5641 220.6 63.1511 220.81C59.5816 222.615 50.6383 226.595 41.2847 226.595Z" fill="#F21137"/>
<path d="M57.1191 177.901C56.8343 177.712 56.5938 177.463 56.414 177.172C56.2341 176.881 56.1191 176.554 56.0769 176.214L54.5985 164.352C54.1292 162.665 54.3474 160.86 55.2053 159.334C56.0632 157.808 57.4908 156.684 59.175 156.21C60.8593 155.735 62.6628 155.949 64.1901 156.803C65.7174 157.658 66.8439 159.083 67.3227 160.768L72.1923 171.726C72.3312 172.039 72.4012 172.378 72.3974 172.72C72.3937 173.062 72.3162 173.4 72.1704 173.709C72.0246 174.019 71.8138 174.293 71.5525 174.514C71.2911 174.735 70.9852 174.897 70.6558 174.988L59.0763 178.213C58.7468 178.305 58.4014 178.325 58.0636 178.271C57.7258 178.217 57.4037 178.091 57.1191 177.901Z" fill="#F21137"/>
<path d="M41.1174 147.421C39.9689 147.442 38.8275 147.236 37.7592 146.813C37.2891 146.632 36.8012 146.483 36.332 146.301C32.1885 144.699 29.459 140.282 29.3612 135.838C29.2635 131.393 31.5633 127.079 34.9783 124.236C38.3933 121.393 42.8166 119.933 47.2458 119.595C52.0168 119.232 57.3891 120.443 60.0551 124.419C60.7647 125.478 61.261 126.762 60.8405 128.04C60.7146 128.426 60.4896 128.772 60.1882 129.043C58.9976 130.103 57.8107 129.306 56.597 129.236C54.9287 129.139 53.4304 130.49 52.8918 132.074C52.3533 133.657 52.5904 135.4 53.0252 137.015C53.3565 137.986 53.5653 138.996 53.6469 140.019C53.682 140.532 53.5855 141.046 53.3667 141.511C53.1478 141.977 52.8139 142.379 52.3964 142.679C51.354 143.309 49.985 142.944 48.942 142.315C47.8989 141.685 46.9976 140.81 45.871 140.346C44.7443 139.883 43.2306 139.986 42.5748 141.013C42.3664 141.387 42.2254 141.795 42.1581 142.217C41.5702 144.898 41.7053 144.74 41.1174 147.421Z" fill="#2F2E41"/>
<path d="M94.6962 314H0.82402C0.692986 314 0.567319 313.948 0.474664 313.855C0.382009 313.762 0.329956 313.637 0.329956 313.505C0.329956 313.374 0.382009 313.249 0.474664 313.156C0.567319 313.063 0.692986 313.011 0.82402 313.011H94.6962C94.8272 313.011 94.9529 313.063 95.0455 313.156C95.1382 313.249 95.1902 313.374 95.1902 313.505C95.1902 313.637 95.1382 313.762 95.0455 313.855C94.9529 313.948 94.8272 314 94.6962 314Z" fill="#CCCCCC"/>
<path d="M334.981 211.952L267.76 249.69C265.817 250.778 263.522 251.051 261.378 250.447C259.234 249.844 257.417 248.414 256.326 246.471L225.63 191.699C224.542 189.754 224.271 187.457 224.873 185.312C225.476 183.166 226.905 181.348 228.846 180.255L296.067 142.517C298.011 141.429 300.306 141.157 302.449 141.76C304.593 142.364 306.41 143.794 307.502 145.736L338.198 200.508C339.285 202.453 339.557 204.75 338.954 206.896C338.351 209.041 336.922 210.86 334.981 211.952Z" fill="white"/>
<path d="M334.981 211.952L267.76 249.69C265.817 250.778 263.522 251.051 261.378 250.447C259.234 249.844 257.417 248.414 256.326 246.471L225.63 191.699C224.542 189.754 224.271 187.457 224.873 185.312C225.476 183.166 226.905 181.348 228.846 180.255L296.067 142.517C298.011 141.429 300.306 141.157 302.449 141.76C304.593 142.364 306.41 143.794 307.502 145.736L338.198 200.508C339.285 202.453 339.557 204.75 338.954 206.896C338.351 209.041 336.922 210.86 334.981 211.952ZM229.329 181.118C227.617 182.082 226.356 183.686 225.824 185.579C225.292 187.472 225.532 189.499 226.491 191.215L257.188 245.987C258.151 247.701 259.754 248.963 261.645 249.496C263.537 250.028 265.562 249.788 267.277 248.828L334.498 211.09C336.211 210.126 337.471 208.521 338.003 206.628C338.535 204.735 338.295 202.708 337.336 200.992L306.64 146.22C305.677 144.506 304.073 143.244 302.182 142.712C300.291 142.179 298.265 142.419 296.551 143.38L229.329 181.118Z" fill="#3F3D56"/>
<path d="M297.645 163.254L263.719 182.3C263.424 182.474 263.075 182.529 262.741 182.454C262.407 182.379 262.114 182.181 261.921 181.898C261.827 181.749 261.764 181.582 261.736 181.408C261.708 181.233 261.716 181.055 261.759 180.883C261.802 180.712 261.88 180.551 261.987 180.411C262.095 180.271 262.229 180.154 262.383 180.067L296.918 160.68C298.616 161.042 298.634 162.699 297.645 163.254Z" fill="#CCCCCC"/>
<path d="M300.983 169.21L267.057 188.256C266.762 188.43 266.413 188.485 266.079 188.41C265.745 188.335 265.452 188.137 265.259 187.854C265.165 187.705 265.102 187.538 265.074 187.363C265.046 187.189 265.054 187.011 265.097 186.839C265.14 186.668 265.218 186.507 265.325 186.367C265.432 186.227 265.567 186.11 265.721 186.023L300.255 166.636C301.954 166.997 301.972 168.655 300.983 169.21Z" fill="#CCCCCC"/>
<path d="M261.624 195.765L251.27 201.577C250.932 201.767 250.532 201.814 250.159 201.709C249.786 201.604 249.469 201.355 249.279 201.017L242.426 188.788C242.237 188.45 242.189 188.05 242.294 187.676C242.399 187.303 242.648 186.986 242.986 186.796L253.34 180.983C253.678 180.794 254.077 180.747 254.451 180.852C254.824 180.957 255.14 181.206 255.33 181.544L262.183 193.773C262.373 194.111 262.42 194.511 262.315 194.884C262.21 195.258 261.961 195.574 261.624 195.765Z" fill="#CCCCCC"/>
<path d="M307.718 181.46L255.942 210.528C255.647 210.701 255.297 210.756 254.964 210.682C254.63 210.607 254.337 210.408 254.144 210.126C254.049 209.977 253.986 209.81 253.958 209.635C253.93 209.461 253.938 209.282 253.982 209.111C254.025 208.94 254.102 208.779 254.21 208.639C254.317 208.498 254.452 208.381 254.606 208.295L306.992 178.885C308.69 179.247 308.708 180.905 307.718 181.46Z" fill="#CCCCCC"/>
<path d="M311.057 187.418L259.28 216.486C258.986 216.659 258.636 216.714 258.302 216.639C257.969 216.565 257.676 216.366 257.483 216.084C257.388 215.934 257.325 215.767 257.297 215.593C257.269 215.418 257.277 215.24 257.32 215.069C257.364 214.897 257.441 214.737 257.549 214.596C257.656 214.456 257.791 214.339 257.945 214.253L310.331 184.843C312.029 185.205 312.046 186.863 311.057 187.418Z" fill="#CCCCCC"/>
<path d="M314.394 193.372L262.617 222.439C262.322 222.613 261.973 222.668 261.639 222.593C261.305 222.518 261.013 222.32 260.82 222.037C260.725 221.888 260.662 221.721 260.634 221.547C260.606 221.372 260.614 221.194 260.657 221.022C260.7 220.851 260.778 220.69 260.885 220.55C260.993 220.41 261.127 220.293 261.281 220.206L313.667 190.797C315.366 191.159 315.383 192.816 314.394 193.372Z" fill="#CCCCCC"/>
<path d="M317.733 199.329L265.956 228.397C265.661 228.57 265.312 228.625 264.978 228.55C264.644 228.476 264.351 228.277 264.158 227.994C264.064 227.845 264.001 227.678 263.973 227.504C263.945 227.329 263.953 227.151 263.996 226.98C264.039 226.808 264.117 226.648 264.224 226.507C264.331 226.367 264.466 226.25 264.62 226.164L317.006 196.754C318.704 197.116 318.722 198.774 317.733 199.329Z" fill="#CCCCCC"/>
<path d="M321.07 205.283L269.293 234.351C268.998 234.524 268.648 234.579 268.315 234.504C267.981 234.43 267.688 234.231 267.495 233.949C267.401 233.799 267.337 233.632 267.31 233.458C267.282 233.283 267.29 233.105 267.333 232.934C267.376 232.762 267.454 232.602 267.561 232.461C267.668 232.321 267.803 232.204 267.957 232.118L320.343 202.708C322.041 203.07 322.059 204.728 321.07 205.283Z" fill="#CCCCCC"/>
<path d="M312.037 227.596C312.318 226.973 312.461 226.297 312.453 225.613C312.445 224.93 312.288 224.257 311.992 223.641C311.696 223.025 311.269 222.481 310.741 222.048C310.212 221.615 309.596 221.304 308.934 221.135L307.526 204.583L300.754 209.929L303.129 224.828C302.92 225.96 303.133 227.129 303.727 228.114C304.322 229.098 305.257 229.831 306.355 230.172C307.453 230.513 308.637 230.439 309.685 229.964C310.732 229.49 311.569 228.647 312.037 227.596Z" fill="#FFB8B8"/>
<path d="M307.654 219.402L302.03 220.073C301.744 220.107 301.454 220.082 301.179 219.999C300.903 219.915 300.648 219.776 300.429 219.59C300.209 219.403 300.031 219.173 299.905 218.915C299.778 218.656 299.706 218.374 299.694 218.086L298.874 199.097L288.213 169.949C287.786 169.044 287.591 168.047 287.647 167.048C287.702 166.05 288.006 165.08 288.53 164.229C288.791 163.817 289.09 163.431 289.423 163.075C290.079 162.368 290.897 161.83 291.805 161.507C292.714 161.184 293.687 161.086 294.642 161.221C295.625 161.352 296.563 161.716 297.378 162.282C298.193 162.849 298.861 163.602 299.327 164.479L306.279 179.06C309.187 185.159 310.56 191.877 310.278 198.628L309.494 217.413C309.474 217.904 309.281 218.373 308.949 218.736C308.618 219.099 308.169 219.334 307.681 219.398L307.654 219.402Z" fill="#F21137"/>
<path d="M327.627 301.472L322.412 303.762L311.103 284.723L318.799 281.342L327.627 301.472Z" fill="#FFB8B8"/>
<path d="M331.175 305.946L314.362 313.332L314.269 313.12C313.892 312.26 313.687 311.333 313.668 310.394C313.648 309.455 313.813 308.521 314.154 307.646C314.495 306.771 315.005 305.972 315.655 305.294C316.304 304.616 317.081 304.072 317.94 303.695L328.209 299.183L331.175 305.946Z" fill="#2F2E41"/>
<path d="M257.623 307.808H251.929L249.22 285.824L257.624 285.825L257.623 307.808Z" fill="#FFB8B8"/>
<path d="M259.075 313.332L240.714 313.332V313.099C240.714 312.16 240.899 311.23 241.258 310.362C241.617 309.494 242.144 308.706 242.807 308.041C243.471 307.377 244.259 306.85 245.126 306.491C245.993 306.132 246.922 305.947 247.861 305.947L259.076 305.947L259.075 313.332Z" fill="#2F2E41"/>
<path d="M313.065 300.292L281.343 229.441C281.285 229.308 281.188 229.196 281.065 229.121C280.941 229.046 280.798 229.011 280.654 229.021C280.509 229.031 280.372 229.086 280.26 229.178C280.149 229.27 280.068 229.394 280.03 229.534L260.702 297.968C260.575 298.447 260.281 298.865 259.873 299.146C259.465 299.427 258.97 299.553 258.477 299.501L247.921 298.445C247.377 298.387 246.877 298.12 246.527 297.7C246.177 297.28 246.004 296.739 246.045 296.194C249.402 254.398 254.695 214.951 270.551 189.127L270.636 188.99L294.619 193.697L326.639 295.746C326.797 296.272 326.743 296.838 326.489 297.325C326.235 297.811 325.801 298.179 325.279 298.349L315.624 301.455C315.129 301.616 314.592 301.586 314.119 301.371C313.645 301.156 313.269 300.771 313.065 300.292Z" fill="#2F2E41"/>
<path d="M282.228 152.833C288.528 152.833 293.636 147.721 293.636 141.415C293.636 135.109 288.528 129.997 282.228 129.997C275.927 129.997 270.819 135.109 270.819 141.415C270.819 147.721 275.927 152.833 282.228 152.833Z" fill="#FFB8B8"/>
<path d="M269.077 191.104L268.932 191.074L268.897 190.93C267.36 184.434 267.324 177.346 268.788 169.862C269.531 166.037 271.599 162.597 274.628 160.148C277.656 157.699 281.451 156.398 285.343 156.474C289.567 156.559 293.598 158.257 296.613 161.22C299.627 164.183 301.396 168.186 301.558 172.411C302.047 185.284 296.791 196.444 296.738 196.555L296.659 196.718L269.077 191.104Z" fill="#F21137"/>
<path d="M238.495 212.826C239.17 212.726 239.816 212.479 240.385 212.103C240.955 211.726 241.436 211.229 241.793 210.647C242.15 210.064 242.375 209.41 242.452 208.731C242.53 208.052 242.458 207.365 242.241 206.717L255.381 196.567L247.222 193.765L235.995 203.833C234.931 204.27 234.065 205.082 233.56 206.116C233.055 207.149 232.946 208.332 233.254 209.441C233.562 210.549 234.266 211.506 235.232 212.13C236.198 212.754 237.359 213.002 238.495 212.826Z" fill="#FFB8B8"/>
<path d="M245.672 205.172C245.244 205.425 244.74 205.516 244.25 205.43C243.761 205.344 243.319 205.085 243.003 204.701L239.393 200.332C239.21 200.111 239.074 199.853 238.995 199.576C238.916 199.299 238.894 199.009 238.932 198.724C238.97 198.438 239.067 198.164 239.215 197.917C239.364 197.671 239.562 197.458 239.797 197.291L255.303 186.317L274.01 161.56C274.539 160.711 275.271 160.007 276.14 159.513C277.009 159.018 277.987 158.749 278.987 158.729C279.474 158.726 279.96 158.768 280.439 158.856C281.388 159.025 282.283 159.421 283.046 160.01C283.809 160.6 284.419 161.366 284.823 162.242C285.246 163.14 285.448 164.127 285.413 165.119C285.379 166.112 285.108 167.082 284.624 167.948L270.771 190.401L270.741 190.451L245.672 205.172Z" fill="#F21137"/>
<path d="M284.268 140.707C283.427 139.323 281.572 138.931 279.961 139.089C278.35 139.247 276.783 139.814 275.164 139.801C270.67 139.767 267.201 134.284 269.09 130.203C270.64 126.855 274.51 125.385 278.012 124.232C285.352 121.813 293.785 119.489 300.446 123.411C302.569 124.698 304.31 126.528 305.489 128.714C306.669 130.899 307.244 133.36 307.155 135.842C307.006 138.929 305.825 142.099 306.823 145.023C307.976 148.396 311.629 150.206 315.082 151.082C321.135 152.616 327.516 152.369 333.607 153.745C339.697 155.122 345.938 158.777 347.58 164.806C348.658 168.766 347.533 173.03 345.669 176.686C343.768 180.417 341.126 183.719 337.905 186.392C334.684 189.065 330.951 191.052 326.936 192.231C322.921 193.409 318.708 193.755 314.555 193.247C310.401 192.739 306.395 191.388 302.782 189.276C295.419 184.973 290.104 177.701 286.934 169.779C285.138 165.158 283.873 160.347 283.164 155.439C282.454 150.845 283.056 146.202 284.342 141.735C284.403 141.568 284.428 141.39 284.415 141.213C284.402 141.036 284.352 140.863 284.268 140.707Z" fill="#2F2E41"/>
<path d="M325.424 314H231.552C231.421 314 231.295 313.948 231.203 313.855C231.11 313.762 231.058 313.637 231.058 313.505C231.058 313.374 231.11 313.249 231.203 313.156C231.295 313.063 231.421 313.011 231.552 313.011H325.424C325.555 313.011 325.681 313.063 325.773 313.156C325.866 313.249 325.918 313.374 325.918 313.505C325.918 313.637 325.866 313.762 325.773 313.855C325.681 313.948 325.555 314 325.424 314Z" fill="#CCCCCC"/>
</g>
<defs>
<clipPath id="clip0_117_10">
<rect width="348" height="314" fill="white"/>
</clipPath>
</defs>
</svg>
